<svg xmlns="http://www.w3.org/2000/svg" width="1280" height="640" viewBox="0 0 1280 640" role="img" aria-labelledby="title desc">
<title id="title">Corpus — Company knowledge. With receipts.</title>
<desc id="desc">An open-source AI workspace from Nuanu AI. Documents and business data become company memory, with sources attached to answers.</desc>
<defs><pattern id="grid" width="32" height="32" patternUnits="userSpaceOnUse"><path d="M32 0H0V32" fill="none" stroke="#dfddcf" stroke-width=".7"/></pattern></defs>
<rect width="1280" height="640" rx="20" fill="#f5f3e9"/>
<rect x="730" y="0" width="550" height="640" fill="url(#grid)"/>
<path d="M48 94H1232" stroke="#222b27" stroke-width="1"/>
<g font-family="Arial, Helvetica, sans-serif" fill="#202c26">
<text x="48" y="58" font-size="18" font-weight="700" letter-spacing="3">NUANU AI / OPEN SOURCE</text>
<rect x="1081" y="30" width="151" height="38" rx="19" fill="#dfeb86"/>
<text x="1156" y="55" text-anchor="middle" font-size="14" font-weight="700" letter-spacing="1">PUBLIC BETA</text>
<text x="40" y="262" font-size="160" font-weight="700" letter-spacing="-12">Corpus<tspan fill="#8eab36">.</tspan></text>
<text x="48" y="344" font-size="43" font-weight="500" letter-spacing="-1.4">Company knowledge.</text>
<text x="48" y="398" font-size="43" font-weight="500" letter-spacing="-1.4">With receipts.</text>
<text x="50" y="464" font-size="18" fill="#657065">Documents, business data, and AI answers</text>
<text x="50" y="490" font-size="18" fill="#657065">connected to the evidence behind them.</text>
</g>
<g fill="none" stroke="#81926b" stroke-width="2"><path d="M857 253V321H1004V365"/><path d="M1138 289V321H1004"/></g>
<g font-family="Arial, Helvetica, sans-serif">
<rect x="757" y="154" width="211" height="134" rx="9" fill="#e6e6d9" transform="rotate(-5 857 221)"/>
<rect x="753" y="141" width="211" height="134" rx="9" fill="#fffef8" stroke="#b9c0a8"/>
<text x="773" y="171" fill="#67745d" font-size="11" letter-spacing="1.5">SOURCE / 01</text>
<text x="773" y="207" fill="#25332a" font-size="22" font-weight="700">Documents</text>
<path d="M773 231H927M773 244H881" stroke="#c6cdba" stroke-width="5"/>
<rect x="995" y="202" width="227" height="113" rx="9" fill="#e6e6d9" transform="rotate(4 1108 259)"/>
<rect x="992" y="190" width="227" height="113" rx="9" fill="#fffef8" stroke="#b9c0a8"/>
<text x="1012" y="220" fill="#67745d" font-size="11" letter-spacing="1.5">SOURCE / 02</text>
<text x="1012" y="255" fill="#25332a" font-size="22" font-weight="700">Business data</text>
<path d="M1012 279H1180" stroke="#c6cdba" stroke-width="5"/>
<circle cx="1004" cy="321" r="6" fill="#829d3c"/>
<rect x="796" y="366" width="414" height="154" rx="12" fill="#243c31"/>
<text x="822" y="398" fill="#c4d4bd" font-size="11" letter-spacing="2">COMPANY MEMORY → ANSWER</text>
<text x="822" y="439" fill="#f5f3e9" font-size="25" font-weight="700">Keep the source attached.</text>
<rect x="822" y="463" width="105" height="31" rx="5" fill="#dfe990"/>
<text x="836" y="484" fill="#25332a" font-size="13" font-weight="700">[01] Source</text>
<rect x="937" y="463" width="105" height="31" rx="5" fill="#dfe990"/>
<text x="951" y="484" fill="#25332a" font-size="13" font-weight="700">[02] Source</text>
</g>
<path d="M48 562H1232" stroke="#222b27" stroke-width="1"/>
<g font-family="Arial, Helvetica, sans-serif" font-size="13" fill="#4e5c4e" letter-spacing="1.5"><text x="48" y="603">SELF-HOSTED</text><text x="227" y="603">SOURCE-LINKED</text><text x="441" y="603">APACHE 2.0</text><text x="1232" y="603" text-anchor="end">KNOW WHERE YOUR ANSWERS COME FROM.</text></g>
</svg>